<svg width="22" height="22" viewBox="0 0 22 22" fill="none" xmlns="http://www.w3.org/2000/svg">
<path d="M15.2167 12.8332C15.0334 12.7416 13.8417 12.1916 13.6584 12.0999C13.475 12.0082 13.2917 12.0082 13.1084 12.1916C12.925 12.3749 12.5584 12.9249 12.375 13.1082C12.2834 13.2916 12.1 13.2916 11.9167 13.1999C11.275 12.9249 10.6334 12.5582 10.0834 12.0999C9.62504 11.6416 9.16671 11.0916 8.80004 10.5416C8.70837 10.3582 8.80004 10.1749 8.89171 10.0832C8.98337 9.99155 9.07504 9.80822 9.25837 9.71655C9.35004 9.62489 9.44171 9.44155 9.44171 9.34988C9.53337 9.25822 9.53337 9.07489 9.44171 8.98322C9.35004 8.89155 8.89171 7.79155 8.70837 7.33322C8.61671 6.69155 8.43337 6.69155 8.25004 6.69155H7.79171C7.60837 6.69155 7.33337 6.87489 7.24171 6.96655C6.69171 7.51655 6.41671 8.15822 6.41671 8.89155C6.50837 9.71655 6.78337 10.5416 7.33337 11.2749C8.34171 12.7416 9.62504 13.9332 11.1834 14.6666C11.6417 14.8499 12.0084 15.0332 12.4667 15.1249C12.925 15.3082 13.3834 15.3082 13.9334 15.2166C14.575 15.1249 15.125 14.6666 15.4917 14.1166C15.675 13.7499 15.675 13.3832 15.5834 13.0166L15.2167 12.8332ZM17.5084 4.49155C13.9334 0.916553 8.15837 0.916553 4.58337 4.49155C1.65004 7.42489 1.10004 11.9166 3.11671 15.4916L1.83337 20.1666L6.69171 18.8832C8.06671 19.6166 9.53337 19.9832 11 19.9832C16.0417 19.9832 20.075 15.9499 20.075 10.9082C20.1667 8.52489 19.1584 6.23322 17.5084 4.49155ZM15.0334 17.3249C13.8417 18.0582 12.4667 18.5166 11 18.5166C9.62504 18.5166 8.34171 18.1499 7.15004 17.5082L6.87504 17.3249L4.03337 18.0582L4.76671 15.3082L4.58337 15.0332C2.38337 11.3666 3.48337 6.78322 7.05837 4.49155C10.6334 2.19989 15.2167 3.39155 17.4167 6.87489C19.6167 10.4499 18.6084 15.1249 15.0334 17.3249Z" fill="black"/>
</svg>
